<?xml version="1.0" encoding="UTF-8" standalone="no"?>
<!DOCTYPE svg PUBLIC "-//W3C//DTD SVG 1.1//EN" "http://www.w3.org/Graphics/SVG/1.1/DTD/svg11.dtd">
<svg width="100%" height="100%" viewBox="0 0 203 215" version="1.1" xmlns="http://www.w3.org/2000/svg" xmlns:xlink="http://www.w3.org/1999/xlink" xml:space="preserve" xmlns:serif="http://www.serif.com/" style="fill-rule:evenodd;clip-rule:evenodd;stroke-linejoin:round;stroke-miterlimit:2;">
    <g transform="matrix(1,0,0,1,-1832.59,-404.25)">
        <g transform="matrix(1.17647,0,0,1.35556,-348.221,-149.156)">
            <ellipse cx="1960.5" cy="419.5" rx="12.75" ry="11.25" style="fill:url(#_Linear1);"/>
        </g>
        <path d="M1917.25,408.25C1917.25,408.25 1902.25,439.75 1944.25,460.25C1944.25,460.25 1971.07,474.108 1999.36,454.905C2003.93,451.836 2006.36,446.439 2005.64,440.98C2004.94,435.977 2001.47,431.38 1990.25,433.161C1988.45,433.436 1986.75,434.21 1985.36,435.395C1979.68,440.024 1961.74,451.918 1940.75,438.75C1940.75,438.75 1922.25,430.75 1917.25,408.25Z" style="fill:url(#_Linear2);"/>
        <path d="M1854.75,492.75C1854.75,492.75 1843.25,480.75 1866.25,463.75C1866.25,463.75 1902.75,440.75 1924.75,463.75C1924.75,463.75 1954.25,498.25 1906.25,522.25C1906.25,522.25 1919.75,529.25 1923.25,533.75C1923.25,533.75 1933.25,538.25 1951.75,506.75C1951.75,506.75 1972.25,472.75 1998.25,478.75C1998.25,478.75 2036.75,482.75 2034.75,533.75C2034.75,533.75 2038.06,579.314 2002.09,594.662C1992.88,598.588 1982.38,598.084 1973.59,593.294C1962.75,587.432 1952.04,574.719 1960.25,547.25C1960.25,547.25 1969.75,590.25 2003.75,571.25C2003.75,571.25 2029.3,547.117 2010.9,503.455C2009.46,500.059 2007,497.196 2003.86,495.263C1997.5,491.374 1986.38,488.924 1975.25,507.25C1975.25,507.25 1953.25,543.75 1935.75,544.75C1935.75,544.75 1958.25,589.25 1924.75,612.25C1924.75,612.25 1893.25,633.75 1855.75,601.25C1855.75,601.25 1823.25,577.75 1835.25,523.25C1835.25,523.25 1842.75,584.25 1884.75,589.25C1884.75,589.25 1939.75,597.75 1916.25,547.25C1916.25,547.25 1903.75,532.75 1887.25,526.75C1887.25,526.75 1877.75,520.25 1891.75,513.25C1891.75,513.25 1905.25,510.25 1913.75,499.75C1913.75,499.75 1929.25,472.25 1892.25,476.75C1892.25,476.75 1877.25,480.25 1865.75,493.75C1865.75,493.75 1861.75,498.25 1854.75,492.75Z" style="fill:url(#_Linear3);"/>
    </g>
    <defs>
        <linearGradient id="_Linear1" x1="0" y1="0" x2="1" y2="0" gradientUnits="userSpaceOnUse" gradientTransform="matrix(25.5,0,0,22.5,1947.75,419.5)"><stop offset="0" style="stop-color:white;stop-opacity:1"/><stop offset="0.29" style="stop-color:rgb(249,202,120);stop-opacity:1"/><stop offset="1" style="stop-color:rgb(231,178,86);stop-opacity:1"/></linearGradient>
        <linearGradient id="_Linear2" x1="0" y1="0" x2="1" y2="0" gradientUnits="userSpaceOnUse" gradientTransform="matrix(91.1104,0,0,56.8358,1914.65,436.668)"><stop offset="0" style="stop-color:white;stop-opacity:1"/><stop offset="0.31" style="stop-color:rgb(255,206,121);stop-opacity:1"/><stop offset="1" style="stop-color:rgb(231,178,86);stop-opacity:1"/></linearGradient>
        <linearGradient id="_Linear3" x1="0" y1="0" x2="1" y2="0" gradientUnits="userSpaceOnUse" gradientTransform="matrix(202.24,0,0,165.696,1832.59,536.376)"><stop offset="0" style="stop-color:white;stop-opacity:1"/><stop offset="0.31" style="stop-color:rgb(244,210,152);stop-opacity:1"/><stop offset="1" style="stop-color:rgb(231,178,86);stop-opacity:1"/></linearGradient>
    </defs>
</svg>
