<?xml version="1.0" standalone="no"?>
<!DOCTYPE svg PUBLIC "-//W3C//DTD SVG 20010904//EN"
 "http://www.w3.org/TR/2001/REC-SVG-20010904/DTD/svg10.dtd">
<svg version="1.0" xmlns="http://www.w3.org/2000/svg"
 width="221.000000pt" height="246.000000pt" viewBox="0 0 221.000000 246.000000"
 preserveAspectRatio="xMidYMid meet">

<g transform="translate(0.000000,246.000000) scale(0.100000,-0.100000)"
fill="#000000" stroke="none">
<path d="M1816 2231 c-202 -67 -379 -294 -466 -596 -55 -193 -120 -303 -230
-388 -35 -27 -35 -27 -5 -17 74 27 172 88 223 139 102 100 137 189 187 466 31
173 50 221 102 261 59 45 114 51 238 24 215 -45 239 -46 278 -12 35 31 13 88
-46 119 -51 26 -207 28 -281 4z"/>
<path d="M670 2141 c-214 -68 -460 -336 -460 -500 0 -65 11 -81 57 -81 47 0
77 57 108 204 42 207 50 225 98 246 71 31 139 33 362 10 116 -12 212 -23 214
-25 2 -3 -25 -35 -59 -72 -71 -78 -114 -146 -135 -218 -15 -49 -35 -195 -75
-527 -32 -266 -69 -503 -91 -576 -27 -89 -59 -135 -116 -169 -41 -24 -58 -28
-123 -27 -65 0 -90 6 -190 46 -151 60 -182 66 -209 39 -62 -62 33 -158 182
-184 136 -23 255 22 384 146 161 155 232 301 279 577 9 52 18 98 20 101 6 10
134 -17 187 -40 74 -32 114 -68 144 -129 l28 -57 -3 -193 c-4 -224 6 -278 64
-342 47 -52 109 -75 204 -74 108 0 170 39 170 106 0 35 -8 39 -61 27 -61 -15
-140 4 -184 42 -57 51 -62 81 -55 354 2 103 0 128 -19 176 -38 98 -127 157
-277 183 -76 13 -80 13 -133 -10 -30 -13 -56 -22 -59 -20 -8 9 49 540 69 640
25 126 56 188 112 223 70 45 128 94 122 104 -4 5 -30 9 -58 9 -29 0 -106 7
-172 15 -159 19 -257 18 -325 -4z"/>
</g>
</svg>
