<svg enable-background="new 0 0 855 262" viewBox="0 0 855 262" xmlns="http://www.w3.org/2000/svg"><path d="m70.5 24.1 44.2 106.2 13.2-25.6-34-80.5h64.9l46.8 106.2 44.2-106.2h31l-93.3 225.2-46.8-111.1-46.8 111-90.6-225.2z" fill="#0179b9"/><path d="m159.1 8.9h90.1l-43.6 105.2z" fill="#be1622"/><g fill="#0179b9"><path d="m291.2 104.5v111.6h-32.3v-111.6z"/><path d="m410.6 128.7-14.7 12.1c-2.7-8-6.9-14-12.4-18s-11.3-6.1-17.4-6.1c-8.2 0-14.5 2.6-18.9 7.9-4.4 5.2-7.4 11-9 17.4-.6 2.4-1 4.8-1.3 7.2s-.4 4.6-.4 6.7c-.8 17 1.6 28.9 7.1 35.8s11.7 10.9 18.6 12c.9.2 1.8.4 2.7.4.9.1 1.7.1 2.7.1 4 0 7.7-.6 11.2-1.7s6.1-2.4 7.8-3.8c.2-.2.5-.4.7-.6s.4-.4.5-.6v-29.7h31v33.5c-1.5 1.1-3.3 2.4-5.3 3.9-2.1 1.5-4.4 3-7.2 4.6-4.7 2.6-10.7 5-18 7.2s-16.4 3.2-27.4 3.2c-16.2 0-30.1-5.3-41.8-15.9s-17.5-25-17.5-43.2c0-19.5 6-33.8 18.1-43 12-9.2 25.8-14.1 41.3-14.7 3 0 6.1.2 9.3.5 3.3.3 6.5.9 9.8 1.7 5.8 1.5 11.4 4 16.8 7.6s10 8.8 13.9 15.6v-.1z"/><path d="m529.9 128.7-14.7 12.1c-2.7-8-6.9-14-12.4-18s-11.3-6.1-17.4-6.1c-8.2 0-14.5 2.6-18.9 7.9-4.4 5.2-7.4 11-9 17.4-.6 2.4-1 4.8-1.3 7.2s-.4 4.6-.4 6.7c-.8 17 1.6 28.9 7.1 35.8s11.7 10.9 18.6 12c.9.2 1.8.4 2.7.4.9.1 1.7.1 2.7.1 4 0 7.7-.6 11.2-1.7s6.1-2.4 7.8-3.8c.2-.2.5-.4.7-.6s.4-.4.5-.6v-29.7h31v33.5c-1.5 1.1-3.3 2.4-5.3 3.9-2.1 1.5-4.4 3-7.2 4.6-4.7 2.6-10.7 5-18 7.2s-16.4 3.2-27.4 3.2c-16.2 0-30.1-5.3-41.8-15.9s-17.5-25-17.5-43.2c0-19.5 6-33.8 18.1-43 12-9.2 25.8-14.1 41.3-14.7 3 0 6.1.2 9.3.5 3.3.3 6.5.9 9.8 1.7 5.8 1.5 11.4 4 16.8 7.6s10 8.8 13.9 15.6v-.1z"/><path d="m619.9 104.5v16.2h-39v30.9h37.6v16.2h-37.6v32.2h40.4v16h-72.7v-111.5z"/><path d="m679.2 104.5c12.2.1 22.8 2.4 31.7 6.9 9 4.5 14.1 12.1 15.5 23 .7 8.6-1.5 16.1-6.4 22.3-5 6.2-11.8 10-20.6 11.3l28.4 48.1h-36.4l-28.2-57.9c1.3.2 2.4.4 3.4.5s2.1.2 3.1.2c8.4 0 14.5-2 18.3-6.1 3.8-4 5.6-8.5 5.6-13.4 0-.1 0-.2 0-.3s0-.1 0-.3c-.1-5.2-2.1-10-5.8-14.3-3.8-4.3-8.8-6.5-15.2-6.5l-10.8-.2v98.1h-31v-111.4z"/><path d="m805.6 124.8-14.9 10.8c-1.9-4.5-4.1-8.2-6.4-10.8-2.3-2.7-4.8-4.5-7.3-5.5-1-.5-2-.8-3-1s-2-.3-3-.3c-3.8-.1-7 1.1-9.7 3.8-2.7 2.6-4.1 5.6-4.2 9 0 .3 0 .7.1 1.1s.1.8.1 1.1c.5 2 1.5 4 3.2 6 1.7 1.9 4.1 3.6 7.4 4.9 1.7.8 3.4 1.6 5.2 2.4s3.5 1.7 5.2 2.6c7.5 3.9 14.4 8.6 20.6 14.1s9.3 12.6 9.3 21.2c-.8 12.7-5.1 22.1-13 28.1s-16.7 9-26.5 9c-.7 0-1.4 0-2.2-.1s-1.5-.1-2.2-.1c-7.6-.7-14.9-3-21.9-7s-12.4-9.4-16.4-16.4l16.3-10.9c1.1 2.2 2.3 4 3.4 5.6s2.3 3 3.4 4.3c2.5 2.8 5 4.9 7.5 6.1s4.8 1.8 7 1.8c3.8.1 6.9-1.2 9.4-3.9s3.8-5.7 3.9-8.9c0-.1 0-.2 0-.3s0-.1 0-.3c.1-2.2-.5-4.2-1.7-6.2-1.3-2-3.3-3.6-6.2-4.9-1-.5-2.1-.9-3.2-1.4s-2.2-.9-3.3-1.4c-8.4-3.8-16.2-8.2-23.3-13.5-7.1-5.2-10.6-12.3-10.6-21.3 0-13.5 3.8-23.6 11.5-30.1s16.4-9.8 26.1-9.8c.8 0 1.6 0 2.3.1s1.5.1 2.3.1c6.7.7 13.3 2.9 19.6 6.7s11.3 9 15 15.7v-.4z"/></g></svg>