<svg xmlns="http://www.w3.org/2000/svg" width="272.25055" height="549.56165" viewBox="0 0 272.25055 549.56165" xmlns:xlink="http://www.w3.org/1999/xlink"><g><polygon points="154.35713 490.02964 139.58217 490.02896 144.3446 528.64215 154.35538 528.64264 154.35713 490.02964" fill="#a0616a"/><path d="M141.0134,529.54364c-1.99704,2.12396-17.66888,10.15448-16.87344,13.86938,0,1.21008,.50777,2.3017,1.32857,3.07178,.75314,.72772,1.77707,1.16779,2.9025,1.16779h18.84514l.58389-1.21008,2.66559-5.50037,1.03235,5.50037,.22849,1.21008h7.10814l-.10155-1.21857-1.89549-22.72925-2.47939-.15228-10.71301-.63464-2.63176-.16077v6.78662l-.00002-.00006Z" fill="#2f2e41"/></g><g><polygon points="91.74104 391.56666 82.22788 402.87152 114.83954 424.08797 121.28517 416.42841 91.74104 391.56666" fill="#a0616a"/><path d="M113.38467,427.2173c.33944,2.89557-3.60597,20.05746-.25133,21.84058,.92591,.77908,2.08807,1.09337,3.20577,.96112,1.04173-.10774,2.03768-.60789,2.76227-1.46903l12.13315-14.41965-.54998-1.22585-2.49249-5.58093,4.87335,2.75142,1.07302,.60426,4.57647-5.4389-.99778-.70683-18.61204-13.18351-1.71285,1.79909-7.38303,7.78861-1.81743,1.9102,5.1929,4.36948v-.00007Z" fill="#2f2e41"/></g><path d="M143.83463,250.10776l-67.29919-28.68085c14.54083-18.62137,8.13617-48.3555,8.29919-79.31915l68,2c-1.18002,24.0509-7.39496,48.76822,11.44882,77.31915l5.55118,15.68085-25.99998,13h-.00002Z" fill="#a0616a"/><path d="M76.53543,221.42688l.29919,46.68085,47.82677,32.9183,12.17323,190.0817,20,1,7-58,20.50636-113.1647s-1.50636-6.8353,1.21762-6.71948-1.72398-7.11581,1.29594-7.15173c.94373-.0112,1.68631-2.16034,2.26129-5.11011,1.84605-9.47061,.70656-19.28168-3.00662-28.18744l-21.82581-52.34737c-28.56367,14.29868-57.88094,12.88196-87.74799,0v-.00002Z" fill="#2f2e41"/><path d="M92.44093,258.81446l39.02362,36.15341s-42.62993,18.13998-38.73958,20.74921-4.90524,1.74094-4.90524,1.74094l-26.59138,20.27695-15.25267,7.45734,54.68676,46.76418-21.43428,17.85792L15.02728,360.76111c-9.08844-3.71436-15.02728-12.5571-15.02728-22.37527v-.00003c0-8.71402,4.69025-17.75348,12.27594-22.04196l64.55869-48.23608,15.60629-9.2934,.00002,.00009Z" fill="#2f2e41"/><path d="M82.62158,185.34516c-3.21306-.7626-.78694-1.23741-.16032-1.32629s.37337-2.91109-.23331-1.93008-5.64986-46.74133-5.64986-46.74133c-3.72992-9.58191-14.89642-28.58005-5.74347-33.23969l32-15,29.99999,1,31.99998,13c5.74457,5.68289-.13168,20.49661-3.28607,29.93021l-2.88861,20.24734s-5.82532,23.82246-3.60851,25.29332c2.21683,1.47087-.28307,1.98418-.28307,1.98418,0,0-3.93375-1.45505-.39632,2.77811-3.24023,5.67358,7.05048,39.53165,10.78473,38.73798-19.07275,19.12613-57.43781,13.00446-86-6,0,0,6.67785-27.97115,3.46481-28.73373Z" fill="#cf9a3e"/><g><path d="M186.47736,156.73641l-44.73481,4.22158,.51122,15.7233,56.51365-5.26486c6.80971-.6344,11.62484-6.95471,10.41434-13.68593-2.43075-13.51676-26.70725-43.8679-30.77309-50.00569-6.248-9.43199-14.72191,21.36037-14.72191,21.36037l22.7906,27.65124Z" fill="#a0616a"/><circle cx="136.37628" cy="167.28437" r="11" fill="#a0616a"/></g><g><path d="M82.22756,99.67388h-.00003s.21315,24.88352-9.84347,19.70042c-6.54426-3.37287-52.82343-13.44331-61.54184-24.05466-4.34169-5.28435-3.22356-13.15082,2.41045-17.028L60.00931,46.1151l8.11989,13.47408-36.985,25.51733,51.08334,14.56738h.00002Z" fill="#a0616a"/><circle cx="69.72541" cy="51.44843" r="11" fill="#a0616a"/></g><path d="M45.20904,87.10776l41.98968,12.14409-8.84944,27.08494c-4.86182,1.79004-10.23779,.21924-13.37402-3.90625l-22.81346-9.52222,3.04725-25.80056Z" fill="#cf9a3e"/><path d="M155.91967,99.25185l7.40033,.7309c4.86523-1.79004,10.23877-.21826,13.37402,3.90625l22.42484,28.68018-29.28423,11.53857-22.45615-27.83948,8.54119-17.01641Z" fill="#cf9a3e"/><path d="M69.01009,531.47229l.00056,.00037c.61223,2.49323,.9212,5.06226,.87875,7.63983l-.00037,.00104c-.67816,.8396-1.36281,1.67285-2.04099,2.51245-.0258,.03229-.05168,.06458-.08397,.09686-1.33701,1.64056-2.67397,3.29407-4.01097,4.93463,1.64058,.30347,3.31989,.40039,4.98628,.297-.05815,.20026-.11626,.40698-.18089,.60718h-18.02019c-2.18312-4.7149-3.88182-9.66241-5.0444-14.7262h-.00648c-10.63419,3.63928-20.57558,2.45361-22.89021-10.04352-2.37686-2.59003-4.27571-5.59338-5.63853-8.82922,.04514-.00653,.08391-.013,.1291-.01947l.06282-.00964c2.77203-.42786,3.58057-4.05447,1.24107-5.60178-.41016-.27127-.83003-.52808-1.25864-.76993-.74924-.4198-1.52428-.79446-2.31871-1.11734l-.02182-.14261c-.44824-2.97763,2.84288-5.00903,5.41121-3.43707,5.33545,3.26556,12.32265,4.7616,17.26826,8.82425,3.3199,2.72568,5.60637,6.65915,6.42661,10.87027l.01939,.13562c-.32297-3.82361-.34883-7.67316-.05168-11.5032,.23894-3.03571,.66527-6.05847,1.27885-9.04889,.68459-3.38443,1.60823-6.72366,2.7644-9.97891-.25191-.12277-.49738-.25195-.74928-.3811-11.41136-.23422-19.40327-5.44833-15.70148-19.76413-.3875-1.50494-.65231-3.03571-.80734-4.57938l.06277-.00967c2.77203-.42789,3.58057-4.0545,1.24107-5.60175-.41014-.27127-.83003-.52814-1.25864-.76993,.00565-.05374,.0114-.10745,.0173-.16119,.61064-5.55136,7.718-7.46255,11.18401-3.08331,2.88553,3.64587,6.16226,7.19769,7.91045,11.41501,1.53575,3.70139,2.43658,9.44339,1.82642,14.20959,2.15897-4.28854,4.71999-8.3707,7.68105-12.16858,.16147-.2067,.32939-.40695,.49091-.61365-1.56952-2.51245-1.81531-5.68796-3.60408-8.03479-2.81163-3.68875-2.76729-7.52417,1.81496-9.83682,2.145-5.49466,6.25389-6.20065,9.23621-2.15726,.59966,.81299,1.58238,1.22717,2.13144,2.06033-.29715,.36813,.79443,6.36847,1.18842,6.3168-.23253,1.40155-.72342,2.77728-1.34991,4.05618-1.7439,3.54587-4.63098,6.50403-8.09296,8.39651-7.2016,8.97137-12.19437,19.71243-14.50012,30.98962-.42632,2.08624-.75571,4.1918-.99471,6.31033-.29062,2.58994-.43275,5.18646-.43275,7.78296,0,10.33417,2.26707,20.61017,6.57515,30.02075-.45862-2.02814-.57486-4.13373-.31648-6.2005,.57637-4.68207,2.91719-9.1178,4.75578-13.54596,2.07147-4.9892,9.15216-5.02356,11.24139-.04175,.02074,.04938,.04131,.09888,.06178,.14838l-.1555,.61816c-1.563,1.49597-.42123,4.06274,1.64468,3.93335v.00006Z" fill="#f2f2f2"/><path d="M210.65916,533.47229l-.00056,.00037c-.61224,2.49323-.9212,5.06226-.87875,7.63983l.00037,.00104c.67818,.8396,1.36282,1.67285,2.04099,2.51245,.0258,.03229,.05168,.06458,.08397,.09686,1.33701,1.64056,2.67397,3.29407,4.01097,4.93463-1.64058,.30347-3.31989,.40039-4.9863,.297,.05815,.20026,.11626,.40698,.18089,.60718h18.02019c2.18312-4.7149,3.88181-9.66241,5.0444-14.7262h.00648c10.63419,3.63928,20.57558,2.45361,22.89021-10.04352,2.37686-2.59003,4.27573-5.59338,5.63855-8.82922-.04514-.00653-.08392-.013-.12912-.01947l-.06281-.00964c-2.77203-.42786-3.58057-4.0545-1.24106-5.60181,.41016-.27127,.83005-.52808,1.25864-.76993,.74924-.4198,1.52429-.79446,2.3187-1.11734l.02182-.14261c.44824-2.97763-2.84286-5.00903-5.41122-3.43707-5.33545,3.26556-12.32265,4.7616-17.26826,8.82425-3.31989,2.72571-5.60635,6.65918-6.42661,10.8703l-.01939,.13562c.32297-3.82367,.34883-7.67316,.05168-11.50323-.23894-3.03568-.66525-6.05844-1.27885-9.04886-.68459-3.38443-1.60825-6.72366-2.7644-9.97891,.25191-.12277,.49738-.25195,.74928-.3811,11.41136-.23422,19.40327-5.44833,15.70146-19.76413,.38751-1.50494,.65231-3.03571,.80734-4.57938l-.06277-.00967c-2.77203-.42789-3.58057-4.0545-1.24107-5.60175,.41014-.27127,.83003-.52814,1.25865-.76993l-.0173-.16119c-.61063-5.55136-7.718-7.46255-11.18401-3.08331-2.88554,3.64587-6.16226,7.19769-7.91045,11.41501-1.53574,3.70139-2.43658,9.44339-1.82642,14.20959-2.15897-4.28854-4.71999-8.3707-7.68105-12.16858-.16145-.2067-.32939-.40695-.49091-.61365,1.56952-2.51245,1.81529-5.68796,3.60408-8.03479,2.81165-3.68875,2.76729-7.52417-1.81496-9.83682-2.145-5.49466-6.25389-6.20065-9.23621-2.15726-.59966,.81299-1.58238,1.22717-2.13144,2.06033,.29715,.36813-.79443,6.36847-1.18842,6.3168,.23251,1.40155,.72342,2.77728,1.34991,4.05618,1.7439,3.54587,4.63098,6.50403,8.09296,8.39651,7.2016,8.97137,12.19437,19.71243,14.50012,30.98962,.42632,2.08624,.75571,4.1918,.99471,6.31033,.29062,2.58997,.43275,5.18646,.43275,7.78296,0,10.33417-2.26707,20.61017-6.57515,30.02075,.4586-2.02814,.57486-4.13373,.31648-6.2005-.57637-4.68207-2.91721-9.1178-4.75578-13.54596-2.07147-4.9892-9.15215-5.02356-11.24139-.04175-.02074,.04938-.04131,.09888-.06178,.14838l.1555,.61816c1.563,1.49597,.42123,4.06274-1.64468,3.93335v.00006h.00002Z" fill="#f2f2f2"/><path d="M271.06049,546.77948H17.77051c-.65997,0-1.19,.53003-1.19,1.19s.53003,1.19,1.19,1.19h253.28998c.66003,0,1.19006-.52997,1.19006-1.19s-.53003-1.19-1.19006-1.19Z" fill="#ccc"/><g><path d="M121.99617,82.85122c-9.4868-3.50681-28.71019,8.34606-27.04977-3.34753,1.31821-9.32069-6.03018,39.69492-7.85326,39.12762-3.20302-1.00037,5.72728-66.8702,3.84808-71.11574-.24121-.54901-.52168-1.12851-.85262-1.7324-.34219-.64659-.72926-1.32368-1.16678-2.03736-.01123-.01832-.02805-.0366-.03928-.05492-1.51457-16.61014,14.72484-30.26183,35.31721-28.55385h.01682c2.09232,.16471,4.252,.51241,6.42285,1.01261h10.23166c1.10507,0,2.1877,.06709,3.25909,.1891,4.12299,.48188,7.96545,1.89096,11.33675,4.00156,4.53242,2.84256,7.354,7.89333,7.79713,12.90747,.34778,3.83686-.70119,7.65543-3.42738,10.44311l-.03366,.00611c.35901,1.54326,.61145,3.12317,.76288,4.73356,.11781,1.15896,.1683,2.33629,.1683,3.51964,0,.24401,0,.49413-.01685,.732-.27486,14.67647-9.19392,27.18746-21.77034,32.43344-.10649,.04463-.21936,.09-.33765,.13591-3.3672,1.30682-5.3369,.91269-8.82559,.06248-2.68497-.65435-5.26486-1.53026-7.78766-2.46282h.00006Z" fill="#2f2e41"/><circle cx="121.72461" cy="54.06569" r="24.2206" fill="#a0616a"/><path d="M100.66248,43.82344c0-.42633,.01123-.84143,.03928-1.26775,.64507-12.30156,10.70287-17.65301,23.21759-18.15226,.33093-.01681,.66191-.02804,.99284-.02804h8.98637c0-.96482,.31975-1.85112,.87508-2.55792,.32536-.43752,.74045-.80215,1.20605-1.07701,.0112,0,.0112-.00561,.01682-.00561,.6395-.37582,1.37433-.5946,2.16525-.5946,.12343,0,.25804,.01123,.39828,.01684,1.92966,.17947,3.81442,.47118,5.67116,.85823,.90874,.19074,1.81746,.40948,2.70377,.65072,.07294,.01681,.13461,.03366,.20755,.05047,2.92816,.80777,5.74969,1.86235,8.42543,3.16375,2.98985,1.80623,5.59824,4.15099,7.69617,6.89964,.34778,3.52835-.70119,7.03988-3.42738,9.60341l-.03366,.00561c.35901,1.41918,.61145,2.87204,.76288,4.35295,.11781,1.06578,.1683,2.14844,.1683,3.23664,0,.22439,0,.4544-.01685,.67314-.27486,13.49637-11.12358,64.71642-23.7,69.54058,.73483-3.24791,3.3096-45.49837,3.68542-46.68761,5.76651-18.10172,1.50333-23.16709-6.80429-28.68117h-8.06642c-1.57065-2.35599-2.34476-5.23926-2.13721-8.06642-1.11629,2.5523-1.73334,5.30092-1.8455,8.06642-4.00517,5.28411-10.60751,4.87459-18.71321,1.2004-.4263-.1907-.847-.39267-1.26772-.5946-.4039-.19632-.80219-.39267-1.20605-.6058h.00003v-.00002Z" fill="#2f2e41"/><circle cx="153.79147" cy="28.84049" r="15.95668" fill="#2f2e41"/><path d="M143.55692,2.14708c6.81886,5.5826,17.20303,3.11589,19.31296,11.67221,2.10994,8.55632-3.11589,17.20302-11.67221,19.31296-8.55632,2.10994-17.50015-3.04805-19.31296-11.67221-2.44473-11.63037,2.02597-27.21035,11.67221-19.31296Z" fill="#2f2e41"/></g></svg>