<?xml version="1.0" encoding="UTF-8" standalone="no"?>
<!DOCTYPE svg PUBLIC "-//W3C//DTD SVG 1.1//EN" "http://www.w3.org/Graphics/SVG/1.1/DTD/svg11.dtd">
<svg width="200" height="200" viewBox="0 0 2303 750" version="1.1" xmlns="http://www.w3.org/2000/svg" xmlns:xlink="http://www.w3.org/1999/xlink" xml:space="preserve" xmlns:serif="http://www.serif.com/" style="fill-rule:evenodd;clip-rule:evenodd;stroke-linejoin:round;stroke-miterlimit:2;">
    <g transform="matrix(1,0,0,1,-396.115,-1101.96)">
        <g transform="matrix(0.660342,0,0,0.524455,223.852,327.606)">
            <path d="M884.581,2346.59L1082.56,2346.59L1082.56,2033.98L1250.85,1496.93L1057.52,1496.93L984.765,1834.62L982.38,1834.62L909.627,1496.93L716.29,1496.93L884.581,2033.98L884.581,2346.59Z" style="fill:rgb(207,154,62);fill-rule:nonzero;stroke:rgb(207,154,62);stroke-width:6.54px;"/>
            <path d="M1520.6,1682.99C1520.6,1648.37 1531.36,1616.13 1573.19,1616.13C1615.02,1616.13 1625.78,1648.37 1625.78,1682.99L1625.78,2160.53C1625.78,2195.15 1615.02,2227.39 1573.19,2227.39C1531.36,2227.39 1520.6,2195.15 1520.6,2160.53L1520.6,1682.99ZM1823.76,1728.36C1823.76,1533.87 1704.5,1480.22 1573.19,1480.22C1441.88,1480.22 1322.62,1533.87 1322.62,1728.36L1322.62,2115.16C1322.62,2309.65 1441.88,2363.3 1573.19,2363.3C1704.5,2363.3 1823.76,2309.65 1823.76,2115.16L1823.76,1728.36Z" style="fill:rgb(207,154,62);fill-rule:nonzero;stroke:rgb(207,154,62);stroke-width:6.54px;"/>
            <path d="M2297.69,2346.59L2413.38,2346.59L2413.38,1918.25L2140.1,1918.25L2140.1,2047.01L2215.4,2047.01L2215.4,2160.53C2215.4,2195.15 2204.64,2227.39 2162.81,2227.39C2119.78,2227.39 2110.22,2195.15 2110.22,2160.53L2110.22,1682.99C2110.22,1648.37 2120.97,1616.13 2162.81,1616.13C2204.64,1616.13 2215.4,1648.37 2215.4,1682.99L2215.4,1801.18L2413.38,1801.18L2414.57,1711.64C2412.19,1544.6 2322.74,1480.22 2162.81,1480.22C2031.5,1480.22 1912.24,1533.87 1912.24,1728.36L1912.24,2115.16C1912.24,2309.65 1984.99,2363.3 2115,2363.3C2143.68,2363.3 2175.95,2360.92 2205.84,2351.38C2236.87,2343.02 2265.49,2327.56 2286.96,2303.77L2297.69,2346.59Z" style="fill:rgb(207,154,62);fill-rule:nonzero;stroke:rgb(207,154,62);stroke-width:6.54px;"/>
            <path d="M2709.47,2008.96L2744.07,1630.49L2746.46,1630.49L2781.06,2008.96L2709.47,2008.96ZM2633.1,1496.93L2488.72,2346.59L2655.77,2346.59L2687.99,2137.72L2795.38,2137.72L2818.05,2346.59L3014.93,2346.59L2905.15,1496.93L2633.1,1496.93Z" style="fill:rgb(207,154,62);fill-rule:nonzero;stroke:rgb(207,154,62);stroke-width:6.54px;"/>
        </g>
        <g transform="matrix(0.238475,0,0,0.189401,224.4,1375.82)">
            <rect x="728.225" y="1896.77" width="264.821" height="140.691" style="fill:rgb(73,82,35);fill-rule:nonzero;stroke:rgb(73,82,35);stroke-width:18.1px;"/>
            <path d="M1574.31,1664.03L1393.04,1664.03L1393.04,2346.59L1574.31,2346.59L1574.31,1872.77C1574.31,1842.92 1575.51,1810.68 1611.38,1810.68C1647.26,1810.68 1649.65,1842.92 1649.65,1872.77L1649.65,2346.59L1830.92,2346.59L1830.92,1872.77C1830.92,1842.92 1832.12,1810.68 1868,1810.68C1903.88,1810.68 1906.27,1842.92 1906.27,1872.77L1906.27,2346.59L2087.54,2346.59L2087.54,1799.95C2087.54,1716.48 2057.72,1655.67 1963.51,1655.67C1896.7,1655.67 1844.08,1693.83 1833.32,1754.64L1830.92,1754.64C1817.81,1689.06 1776.07,1655.67 1708.09,1655.67C1638.89,1655.67 1595.84,1691.44 1576.7,1754.64L1574.31,1754.64L1574.31,1664.03Z" style="fill:rgb(73,82,35);fill-rule:nonzero;stroke:rgb(73,82,35);stroke-width:18.1px;"/>
            <path d="M2366.83,1827.41C2366.83,1802.34 2376.4,1779.65 2406.29,1779.65C2436.19,1779.65 2445.76,1802.34 2445.76,1827.41L2445.76,2183.21C2445.76,2208.28 2436.19,2230.97 2406.29,2230.97C2376.4,2230.97 2366.83,2208.28 2366.83,2183.21L2366.83,1827.41ZM2634.19,1847.7C2634.19,1724.82 2553.09,1655.67 2406.29,1655.67C2259.5,1655.67 2178.4,1724.82 2178.4,1847.7L2178.4,2173.66C2178.4,2300.11 2285.73,2354.95 2406.29,2354.95C2526.85,2354.95 2634.19,2300.11 2634.19,2173.66L2634.19,1847.7Z" style="fill:rgb(73,82,35);fill-rule:nonzero;stroke:rgb(73,82,35);stroke-width:18.1px;"/>
            <path d="M2839.59,2346.59L3068.68,2346.59L3191.58,1664.03L3029.31,1664.03L2966.07,2193.94L2963.68,2193.94L2900.44,1664.03L2709.53,1664.03L2839.59,2346.59Z" style="fill:rgb(73,82,35);fill-rule:nonzero;stroke:rgb(73,82,35);stroke-width:18.1px;"/>
            <path d="M3456.55,2346.59L3456.55,1664.03L3268.12,1664.03L3268.12,2346.59L3456.55,2346.59ZM3456.55,1617.33L3456.55,1496.93L3268.12,1496.93L3268.12,1617.33L3456.55,1617.33Z" style="fill:rgb(73,82,35);fill-rule:nonzero;stroke:rgb(73,82,35);stroke-width:18.1px;"/>
            <path d="M3734.65,1664.03L3546.22,1664.03L3546.22,2346.59L3734.65,2346.59L3734.65,1872.77C3734.65,1842.92 3739.43,1810.68 3775.31,1810.68C3811.18,1810.68 3813.57,1842.92 3813.57,1872.77L3813.57,2346.59L4002.01,2346.59L4002.01,1811.88C4002.01,1714.1 3959.07,1655.67 3874.39,1655.67C3800.42,1655.67 3754.98,1689.06 3737.04,1748.68L3734.65,1748.68L3734.65,1664.03Z" style="fill:rgb(73,82,35);fill-rule:nonzero;stroke:rgb(73,82,35);stroke-width:18.1px;"/>
            <path d="M4278.91,1862.03C4278.91,1836.95 4287.28,1810.68 4318.37,1810.68C4349.46,1810.68 4357.83,1836.95 4357.83,1862.03L4357.83,2057.87C4357.83,2082.95 4349.46,2109.22 4318.37,2109.22C4287.28,2109.22 4278.91,2082.95 4278.91,2057.87L4278.91,1862.03ZM4546.27,1664.03L4356.64,1664.03L4356.64,1752.26L4354.25,1752.26C4327.94,1690.25 4289.67,1655.67 4213.32,1655.67C4148.91,1655.67 4090.48,1704.56 4090.48,1813.07L4090.48,2092.51C4090.48,2191.5 4128.64,2264.24 4239.55,2264.24C4300.44,2264.24 4348.27,2222.5 4354.25,2164.07L4357.83,2164.07L4357.83,2333.56C4357.83,2357.46 4348.27,2375.39 4318.37,2375.39C4288.48,2375.39 4278.91,2357.46 4278.91,2333.56L4278.91,2288.26L4090.48,2288.26L4090.48,2355.05C4090.48,2427.8 4169.19,2499.37 4313.59,2499.37C4397.19,2499.37 4546.27,2470.74 4546.27,2281.1L4546.27,1664.03Z" style="fill:rgb(73,82,35);fill-rule:nonzero;stroke:rgb(73,82,35);stroke-width:18.1px;"/>
            <path d="M5131.11,1664.03L4949.84,1664.03L4949.84,2346.59L5131.11,2346.59L5131.11,1872.77C5131.11,1842.92 5132.31,1810.68 5168.18,1810.68C5204.06,1810.68 5206.45,1842.92 5206.45,1872.77L5206.45,2346.59L5387.73,2346.59L5387.73,1872.77C5387.73,1842.92 5388.92,1810.68 5424.8,1810.68C5460.68,1810.68 5463.07,1842.92 5463.07,1872.77L5463.07,2346.59L5644.34,2346.59L5644.34,1799.95C5644.34,1716.48 5614.53,1655.67 5520.31,1655.67C5453.5,1655.67 5400.88,1693.83 5390.12,1754.64L5387.73,1754.64C5374.61,1689.06 5332.87,1655.67 5264.89,1655.67C5195.69,1655.67 5152.64,1691.44 5133.5,1754.64L5131.11,1754.64L5131.11,1664.03Z" style="fill:rgb(73,82,35);fill-rule:nonzero;stroke:rgb(73,82,35);stroke-width:18.1px;"/>
            <path d="M6190.99,2026.72L6190.99,1847.76C6190.99,1700.97 6083.65,1655.67 5963.1,1655.67C5816.3,1655.67 5735.2,1724.82 5735.2,1847.76L5735.2,2173.63C5735.2,2300.11 5842.53,2354.95 5963.1,2354.95C6095.58,2354.95 6190.99,2306.07 6190.99,2177.22L6190.99,2077L6002.56,2077L6002.56,2165.27C6002.56,2205.88 5992.99,2230.97 5963.1,2230.97C5937.98,2230.97 5923.63,2205.88 5923.63,2165.27L5923.63,2026.72L6190.99,2026.72ZM5923.63,1913.48L5923.63,1820.28C5923.63,1793.99 5936.79,1779.65 5963.1,1779.65C5989.4,1779.65 6002.56,1793.99 6002.56,1820.28L6002.56,1913.48L5923.63,1913.48Z" style="fill:rgb(73,82,35);fill-rule:nonzero;stroke:rgb(73,82,35);stroke-width:18.1px;"/>
            <path d="M6467.9,1857.25C6467.9,1827.4 6484.64,1810.68 6507.36,1810.68C6530.08,1810.68 6546.82,1827.4 6546.82,1857.25L6546.82,2153.37C6546.82,2183.22 6530.08,2199.93 6507.36,2199.93C6484.64,2199.93 6467.9,2183.22 6467.9,2153.37L6467.9,1857.25ZM6546.82,2346.59L6735.25,2346.59L6735.25,1496.93L6546.82,1496.93L6546.82,1757.03L6544.43,1757.03C6527.69,1695.02 6479.85,1655.67 6410.65,1655.67C6315.24,1655.67 6279.46,1720.06 6279.46,1807.11L6279.46,2184.41C6279.46,2266.71 6310.47,2354.95 6414.23,2354.95C6483.44,2354.95 6534.86,2328.71 6544.43,2260.75L6546.82,2260.75L6546.82,2346.59Z" style="fill:rgb(73,82,35);fill-rule:nonzero;stroke:rgb(73,82,35);stroke-width:18.1px;"/>
            <path d="M7013.35,2346.59L7013.35,1664.03L6824.92,1664.03L6824.92,2346.59L7013.35,2346.59ZM7013.35,1617.33L7013.35,1496.93L6824.92,1496.93L6824.92,1617.33L7013.35,1617.33Z" style="fill:rgb(73,82,35);fill-rule:nonzero;stroke:rgb(73,82,35);stroke-width:18.1px;"/>
            <path d="M7149.57,1788.01L7149.57,2204.7C7149.57,2294.14 7172.23,2346.59 7266.44,2346.59L7420.35,2346.59L7420.35,2222.61L7383.35,2222.61C7339.19,2222.61 7338,2201.12 7338,2160.52L7338,1788.01L7420.35,1788.01L7420.35,1664.03L7338,1664.03L7338,1541.09L7149.57,1541.09L7149.57,1664.03L7086.31,1664.03L7086.31,1788.01L7149.57,1788.01Z" style="fill:rgb(73,82,35);fill-rule:nonzero;stroke:rgb(73,82,35);stroke-width:18.1px;"/>
            <path d="M7680.55,2096.57C7680.55,2042.51 7722.4,2026.89 7759.47,2000.46L7759.47,2119.39C7759.47,2180.66 7754.69,2207.1 7715.23,2207.1C7697.29,2207.1 7680.55,2195.08 7680.55,2171.05L7680.55,2096.57ZM7759.47,2346.59L7947.91,2346.59L7947.91,1841.76C7947.91,1704.58 7833.42,1655.67 7720.01,1655.67C7606.61,1655.67 7492.12,1704.58 7492.12,1841.76L7492.12,1904.98L7680.55,1904.98L7680.55,1829.8C7680.55,1802.34 7688.92,1779.65 7720.01,1779.65C7751.1,1779.65 7759.47,1802.34 7759.47,1829.8C7759.47,1956.36 7492.12,1934.87 7492.12,2113.97L7492.12,2215.44C7492.12,2304.87 7542.21,2354.95 7624.5,2354.95C7699.68,2354.95 7734.36,2315.6 7757.08,2266.71L7759.47,2266.71L7759.47,2346.59Z" style="fill:rgb(73,82,35);fill-rule:nonzero;stroke:rgb(73,82,35);stroke-width:18.1px;"/>
            <path d="M8082.93,1788.01L8082.93,2204.7C8082.93,2294.14 8105.59,2346.59 8199.8,2346.59L8353.72,2346.59L8353.72,2222.61L8316.72,2222.61C8272.56,2222.61 8271.36,2201.12 8271.36,2160.52L8271.36,1788.01L8353.72,1788.01L8353.72,1664.03L8271.36,1664.03L8271.36,1541.09L8082.93,1541.09L8082.93,1664.03L8019.67,1664.03L8019.67,1788.01L8082.93,1788.01Z" style="fill:rgb(73,82,35);fill-rule:nonzero;stroke:rgb(73,82,35);stroke-width:18.1px;"/>
            <path d="M8615.11,2346.59L8615.11,1664.03L8426.67,1664.03L8426.67,2346.59L8615.11,2346.59ZM8615.11,1617.33L8615.11,1496.93L8426.67,1496.93L8426.67,1617.33L8615.11,1617.33Z" style="fill:rgb(73,82,35);fill-rule:nonzero;stroke:rgb(73,82,35);stroke-width:18.1px;"/>
            <path d="M8893.2,1827.41C8893.2,1802.34 8902.77,1779.65 8932.67,1779.65C8962.56,1779.65 8972.13,1802.34 8972.13,1827.41L8972.13,2183.21C8972.13,2208.28 8962.56,2230.97 8932.67,2230.97C8902.77,2230.97 8893.2,2208.28 8893.2,2183.21L8893.2,1827.41ZM9160.56,1847.7C9160.56,1724.82 9079.46,1655.67 8932.67,1655.67C8785.87,1655.67 8704.77,1724.82 8704.77,1847.7L8704.77,2173.66C8704.77,2300.11 8812.11,2354.95 8932.67,2354.95C9053.23,2354.95 9160.56,2300.11 9160.56,2173.66L9160.56,1847.7Z" style="fill:rgb(73,82,35);fill-rule:nonzero;stroke:rgb(73,82,35);stroke-width:18.1px;"/>
            <path d="M9437.47,1664.03L9249.03,1664.03L9249.03,2346.59L9437.47,2346.59L9437.47,1872.77C9437.47,1842.92 9442.25,1810.68 9478.12,1810.68C9514,1810.68 9516.39,1842.92 9516.39,1872.77L9516.39,2346.59L9704.82,2346.59L9704.82,1811.88C9704.82,1714.1 9661.89,1655.67 9577.21,1655.67C9503.24,1655.67 9457.8,1689.06 9439.86,1748.68L9437.47,1748.68L9437.47,1664.03Z" style="fill:rgb(73,82,35);fill-rule:nonzero;stroke:rgb(73,82,35);stroke-width:18.1px;"/>
            <rect x="10101.2" y="1896.77" width="264.821" height="140.691" style="fill:rgb(73,82,35);fill-rule:nonzero;stroke:rgb(73,82,35);stroke-width:18.1px;"/>
        </g>
    </g>
</svg>
